<svg width="128" height="114" viewBox="0 0 128 114" fill="none" xmlns="http://www.w3.org/2000/svg">
<path d="M6.15998 11.3695C6.67526 11.3693 6.67526 11.3693 7.20094 11.3691C7.92736 11.3697 8.65378 11.3724 9.38019 11.3771C10.4831 11.3836 11.5859 11.3828 12.6889 11.3809C13.3968 11.3825 14.1048 11.3845 14.8127 11.387C15.3019 11.3866 15.3019 11.3866 15.801 11.3862C20.6247 11.4272 24.4022 12.4395 27.9721 15.8051C29.7446 17.6707 31.2594 19.6241 32.7104 21.7495C33.1062 22.3239 33.502 22.8982 33.898 23.4724C34.0948 23.7587 34.2916 24.045 34.4943 24.34C35.344 25.5729 36.203 26.7992 37.063 28.0249C37.3835 28.4823 37.704 28.9397 38.0244 29.3971C38.1823 29.6225 38.3402 29.8478 38.5029 30.08C38.9964 30.7844 39.4894 31.4892 39.9822 32.194C41.6447 34.5712 43.3096 36.9466 44.9858 39.3142C45.7484 40.3923 46.5059 41.4736 47.2584 42.5587C49.7072 46.1298 49.7072 46.1298 52.4107 49.5082C52.5394 49.6752 52.6681 49.8421 52.8007 50.0141C53.2488 50.4191 53.2488 50.4191 53.9381 50.3222C56.4112 49.4356 58.1075 45.8218 59.5281 43.7145C60.296 42.5842 61.0824 41.4669 61.8676 40.3486C62.2022 39.8711 62.5369 39.3937 62.8716 38.9163C63.0385 38.6784 63.2053 38.4405 63.3773 38.1953C65.6011 35.0249 67.8203 31.8514 70.0309 28.6717C70.4067 28.1316 70.7825 27.5916 71.1583 27.0515C71.888 26.0029 72.6162 24.9532 73.3434 23.9029C74.9684 21.5611 76.594 19.2541 78.4214 17.0648C78.7416 16.6321 78.7416 16.6321 79.0682 16.1908C81.3908 13.7061 84.3293 12.1354 87.651 11.4711C90.6045 11.4711 93.558 11.4711 96.6009 11.4711C96.6009 22.0851 96.6009 32.6992 96.6009 43.6349C94.2474 43.9117 94.2474 43.9117 91.8463 44.1942C87.2954 45.3845 83.6002 47.1728 80.0995 50.3473C79.9261 50.4948 79.7527 50.6422 79.574 50.7941C75.7061 54.3031 73.8499 59.4097 72.5699 64.3228C72.4696 64.6987 72.3691 65.0745 72.2683 65.4503C72.1934 65.7319 72.1184 66.0134 72.0411 66.3036C71.5926 67.4175 70.946 68.312 70.2406 69.2785C70.0928 69.4846 69.9449 69.6907 69.7926 69.9031C68.5235 71.6658 67.2289 73.4099 65.9354 75.1547C64.7517 76.7561 63.5998 78.3773 62.4619 80.0114C61.9768 80.7064 61.4916 81.4014 61.0064 82.0963C60.68 82.5638 60.3539 83.0315 60.028 83.4994C59.5485 84.1857 59.0653 84.8695 58.5813 85.5526C58.4394 85.7571 58.2975 85.9615 58.1513 86.1722C57.0181 87.7615 55.8361 89.2164 53.9315 89.8178C52.7269 89.774 52.1339 89.48 51.292 88.6641C49.2492 86.4456 47.5685 83.9237 45.8504 81.4531C45.1568 80.457 44.4576 79.4649 43.758 78.4731C43.6201 78.2774 43.4822 78.0818 43.3402 77.8802C42.3259 76.4434 41.2958 75.0188 40.2619 73.5961C38.8422 71.6414 37.4712 69.6574 36.1148 67.6584C35.1869 66.2957 34.2356 64.9555 33.2523 63.6323C31.9453 61.8737 30.7061 60.0744 29.4774 58.2604C28.2157 56.4045 26.9082 54.5849 25.5747 52.78C25.3581 52.4844 25.3581 52.4844 25.137 52.1827C25.0093 52.01 24.8816 51.8373 24.75 51.6594C24.4422 51.1864 24.4422 51.1864 24.1625 50.3473C23.9779 50.3473 23.7933 50.3473 23.6032 50.3473C23.6039 50.6496 23.6047 50.952 23.6055 51.2635C23.6241 58.6187 23.6379 65.9739 23.6466 73.3291C23.651 76.886 23.6569 80.4429 23.6665 83.9998C23.6748 87.0999 23.6802 90.2 23.6821 93.3C23.6832 94.9416 23.6858 96.5832 23.6919 98.2248C23.6976 99.77 23.6993 101.315 23.6981 102.86C23.6983 103.427 23.7 103.994 23.7032 104.561C23.7074 105.336 23.7063 106.11 23.7041 106.885C23.7065 107.109 23.7089 107.333 23.7115 107.564C23.6968 109.4 23.2965 110.691 22.0824 112.123C20.9598 113.054 20.0113 113.033 18.5804 113.046C18.2444 113.05 17.9083 113.053 17.562 113.057C17.0188 113.06 17.0188 113.06 16.4646 113.063C16.2795 113.065 16.0944 113.066 15.9037 113.067C14.9243 113.073 13.945 113.077 12.9656 113.079C11.9567 113.082 10.9481 113.092 9.93936 113.103C9.16098 113.11 8.38263 113.113 7.60422 113.114C7.05238 113.116 6.50056 113.123 5.94876 113.131C2.84023 113.123 2.84023 113.123 1.50804 111.878C0.360837 110.607 0.0748897 109.739 0.0728521 108.048C0.0717778 107.714 0.0707032 107.38 0.0695964 107.037C0.0698387 106.668 0.0700813 106.299 0.0703309 105.92C0.0696085 105.526 0.068766 105.131 0.067813 104.737C0.0655529 103.652 0.0650554 102.566 0.0648491 101.481C0.0643321 100.311 0.0622212 99.1417 0.0603361 97.972C0.0565348 95.4132 0.0548514 92.8545 0.0536204 90.2957C0.0528482 88.6986 0.0516634 87.1016 0.0504031 85.5045C0.0469928 81.0843 0.0441122 76.6642 0.0431663 72.244C0.0431049 71.961 0.0430434 71.6781 0.0429801 71.3865C0.042919 71.1028 0.0428579 70.8192 0.042795 70.5269C0.0426709 69.952 0.0425462 69.3772 0.0424205 68.8023C0.0423586 68.5172 0.0422965 68.2321 0.0422327 67.9383C0.0411282 63.3167 0.0362462 58.6951 0.0297344 54.0736C0.0231057 49.3309 0.0196166 44.5883 0.0192903 39.8456C0.0190337 37.1819 0.0174195 34.5182 0.0123485 31.8544C0.00804605 29.5864 0.00660582 27.3185 0.00891886 25.0505C0.0100132 23.893 0.00974299 22.7356 0.00582642 21.5781C0.00227412 20.5187 0.00258921 19.4593 0.00599179 18.3998C0.00680127 17.8347 0.00347218 17.2696 0 16.7045C0.00184308 16.3684 0.00368636 16.0324 0.00558529 15.6862C0.0054183 15.3968 0.0052511 15.1073 0.00507904 14.809C0.130142 13.827 0.44468 13.1579 0.948666 12.3101C2.47267 11.1329 4.32382 11.3551 6.15998 11.3695Z" fill="white"/>
<path d="M107.509 79.4375C107.693 79.4375 107.878 79.4375 108.068 79.4375C108.087 83.2278 108.102 87.0181 108.111 90.8085C108.116 92.5686 108.122 94.3286 108.131 96.0887C108.14 97.7879 108.145 99.4871 108.148 101.186C108.149 101.834 108.152 102.482 108.157 103.129C108.163 104.038 108.164 104.946 108.163 105.855C108.166 106.121 108.169 106.388 108.172 106.662C108.163 108.665 107.873 110.241 106.582 111.846C105.27 112.884 103.988 113.07 102.345 113.081C101.816 113.086 101.816 113.086 101.276 113.092C100.895 113.093 100.513 113.093 100.132 113.094C99.7371 113.095 99.3422 113.097 98.9473 113.099C98.1216 113.103 97.296 113.104 96.4704 113.103C95.4152 113.103 94.3602 113.111 93.305 113.121C92.4902 113.127 91.6754 113.128 90.8605 113.128C90.4715 113.128 90.0826 113.131 89.6937 113.135C85.9372 113.173 85.9372 113.173 84.5745 111.881C83.4093 110.555 83.4163 109.316 83.424 107.62C83.424 107.385 83.4239 107.15 83.4239 106.909C83.4241 106.132 83.4262 105.356 83.4284 104.58C83.429 104.042 83.4293 103.504 83.4296 102.965C83.4307 101.549 83.4334 100.132 83.4365 98.7155C83.4394 97.2701 83.4407 95.8247 83.4421 94.3793C83.4451 91.543 83.4499 88.7066 83.4557 85.8703C83.6775 85.9095 83.8992 85.9488 84.1277 85.9893C88.8149 86.7993 93.7686 87.0065 98.2791 85.3109C98.5725 85.2063 98.866 85.1018 99.1684 84.9941C101.946 83.9266 104.353 82.3998 106.513 80.3563C106.949 79.9969 106.949 79.9969 107.509 79.9969C107.509 79.8123 107.509 79.6277 107.509 79.4375Z" fill="white"/>
<path d="M6.15998 11.3695C6.67526 11.3693 6.67526 11.3693 7.20094 11.3691C7.92736 11.3697 8.65378 11.3724 9.38019 11.3771C10.4831 11.3836 11.5859 11.3828 12.6889 11.3809C13.3968 11.3825 14.1048 11.3845 14.8127 11.387C15.3019 11.3866 15.3019 11.3866 15.801 11.3862C20.6247 11.4272 24.4022 12.4395 27.9721 15.8051C29.7446 17.6707 31.2594 19.6241 32.7104 21.7495C33.1062 22.3239 33.502 22.8982 33.898 23.4724C34.0948 23.7587 34.2916 24.045 34.4943 24.34C35.344 25.5729 36.203 26.7992 37.063 28.0249C37.3835 28.4823 37.704 28.9397 38.0244 29.3971C38.1823 29.6225 38.3402 29.8478 38.5029 30.08C38.9964 30.7844 39.4894 31.4892 39.9822 32.194C41.6447 34.5712 43.3096 36.9466 44.9858 39.3142C45.7484 40.3923 46.5059 41.4736 47.2584 42.5587C49.7072 46.1298 49.7072 46.1298 52.4107 49.5082C52.5394 49.6752 52.6681 49.8421 52.8007 50.0141C53.2488 50.4191 53.2488 50.4191 53.9381 50.3222C56.4112 49.4356 58.1075 45.8218 59.5281 43.7145C60.296 42.5842 61.0824 41.4669 61.8676 40.3486C62.2022 39.8711 62.5369 39.3937 62.8716 38.9163C63.0385 38.6784 63.2053 38.4405 63.3773 38.1953C65.6011 35.0249 67.8203 31.8514 70.0309 28.6717C70.4067 28.1316 70.7825 27.5916 71.1583 27.0515C71.888 26.0029 72.6162 24.9532 73.3434 23.9029C74.9684 21.5611 76.594 19.2541 78.4214 17.0648C78.7416 16.6321 78.7416 16.6321 79.0682 16.1908C81.3908 13.7061 84.3293 12.1354 87.651 11.4711C90.6045 11.4711 93.558 11.4711 96.6009 11.4711C96.6009 22.0851 96.6009 32.6992 96.6009 43.6349C94.2474 43.9117 94.2474 43.9117 91.8463 44.1942C87.2954 45.3845 83.6002 47.1728 80.0995 50.3473C79.9261 50.4948 79.7527 50.6422 79.574 50.7941C75.7061 54.3031 73.8499 59.4097 72.5699 64.3228C72.4696 64.6987 72.3691 65.0745 72.2683 65.4503C72.1934 65.7319 72.1184 66.0134 72.0411 66.3036C71.5926 67.4175 70.946 68.312 70.2406 69.2785C70.0928 69.4846 69.9449 69.6907 69.7926 69.9031C68.5235 71.6658 67.2289 73.4099 65.9354 75.1547C64.7517 76.7561 63.5998 78.3773 62.4619 80.0114C61.9768 80.7064 61.4916 81.4014 61.0064 82.0963C60.68 82.5638 60.3539 83.0315 60.028 83.4994C59.5485 84.1857 59.0653 84.8695 58.5813 85.5526C58.4394 85.7571 58.2975 85.9615 58.1513 86.1722C57.0181 87.7615 55.8361 89.2164 53.9315 89.8178C52.7269 89.774 52.1339 89.48 51.292 88.6641C49.2492 86.4456 47.5685 83.9237 45.8504 81.4531C45.1568 80.457 44.4576 79.4649 43.758 78.4731C43.6201 78.2774 43.4822 78.0818 43.3402 77.8802C42.3259 76.4434 41.2958 75.0188 40.2619 73.5961C38.8422 71.6414 37.4712 69.6574 36.1148 67.6584C35.1869 66.2957 34.2356 64.9555 33.2523 63.6323C31.9453 61.8737 30.7061 60.0744 29.4774 58.2604C28.2157 56.4045 26.9082 54.5849 25.5747 52.78C25.3581 52.4844 25.3581 52.4844 25.137 52.1827C25.0093 52.01 24.8816 51.8373 24.75 51.6594C24.4422 51.1864 24.4422 51.1864 24.1625 50.3473C23.9779 50.3473 23.7933 50.3473 23.6032 50.3473C23.6039 50.6496 23.6047 50.952 23.6055 51.2635C23.6241 58.6187 23.6379 65.9739 23.6466 73.3291C23.651 76.886 23.6569 80.4429 23.6665 83.9998C23.6748 87.0999 23.6802 90.2 23.6821 93.3C23.6832 94.9416 23.6858 96.5832 23.6919 98.2248C23.6976 99.77 23.6993 101.315 23.6981 102.86C23.6983 103.427 23.7 103.994 23.7032 104.561C23.7074 105.336 23.7063 106.11 23.7041 106.885C23.7065 107.109 23.7089 107.333 23.7115 107.564C23.6968 109.4 23.2965 110.691 22.0824 112.123C20.9598 113.054 20.0113 113.033 18.5804 113.046C18.2444 113.05 17.9083 113.053 17.562 113.057C17.0188 113.06 17.0188 113.06 16.4646 113.063C16.2795 113.065 16.0944 113.066 15.9037 113.067C14.9243 113.073 13.945 113.077 12.9656 113.079C11.9567 113.082 10.9481 113.092 9.93936 113.103C9.16098 113.11 8.38263 113.113 7.60422 113.114C7.05238 113.116 6.50056 113.123 5.94876 113.131C2.84023 113.123 2.84023 113.123 1.50804 111.878C0.360837 110.607 0.0748897 109.739 0.0728521 108.048C0.0717778 107.714 0.0707032 107.38 0.0695964 107.037C0.0698387 106.668 0.0700813 106.299 0.0703309 105.92C0.0696085 105.526 0.068766 105.131 0.067813 104.737C0.0655529 103.652 0.0650554 102.566 0.0648491 101.481C0.0643321 100.311 0.0622212 99.1417 0.0603361 97.972C0.0565348 95.4132 0.0548514 92.8545 0.0536204 90.2957C0.0528482 88.6986 0.0516634 87.1016 0.0504031 85.5045C0.0469928 81.0843 0.0441122 76.6642 0.0431663 72.244C0.0431049 71.961 0.0430434 71.6781 0.0429801 71.3865C0.042919 71.1028 0.0428579 70.8192 0.042795 70.5269C0.0426709 69.952 0.0425462 69.3772 0.0424205 68.8023C0.0423586 68.5172 0.0422965 68.2321 0.0422327 67.9383C0.0411282 63.3167 0.0362462 58.6951 0.0297344 54.0736C0.0231057 49.3309 0.0196166 44.5883 0.0192903 39.8456C0.0190337 37.1819 0.0174195 34.5182 0.0123485 31.8544C0.00804605 29.5864 0.00660582 27.3185 0.00891886 25.0505C0.0100132 23.893 0.00974299 22.7356 0.00582642 21.5781C0.00227412 20.5187 0.00258921 19.4593 0.00599179 18.3998C0.00680127 17.8347 0.00347218 17.2696 0 16.7045C0.00184308 16.3684 0.00368636 16.0324 0.00558529 15.6862C0.0054183 15.3968 0.0052511 15.1073 0.00507904 14.809C0.130142 13.827 0.44468 13.1579 0.948666 12.3101C2.47267 11.1329 4.32382 11.3551 6.15998 11.3695Z" fill="white"/>
<path d="M106.669 0.282671C108.571 1.64835 110.186 3.47684 111.836 5.13312C112.28 5.57839 112.725 6.02215 113.17 6.46579C114.549 7.84342 115.901 9.23195 117.167 10.7145C117.77 11.4141 118.41 12.0766 119.046 12.7461C124.365 18.494 128.151 25.3951 127.995 33.421C127.761 36.7116 127.065 39.785 125.688 42.7948C125.571 43.0555 125.454 43.3161 125.333 43.5847C124.036 46.2052 121.932 48.6592 119.535 50.3463C119.258 50.3463 118.981 50.3463 118.696 50.3463C118.887 48.7724 119.458 47.661 120.215 46.2876C121.347 43.7712 121.64 41.3757 121.615 38.6345C121.613 38.3146 121.612 37.9946 121.61 37.665C121.567 35.364 121.334 33.4415 120.374 31.3277C120.253 31.0195 120.253 31.0195 120.129 30.705C118.544 27.0393 115.063 25.0201 111.638 23.3193C111.388 23.1949 111.138 23.0705 110.88 22.9423C110.691 22.8483 110.501 22.7543 110.305 22.6575C110.306 22.8917 110.306 23.1259 110.307 23.3672C110.319 29.08 110.329 34.7927 110.334 40.5055C110.337 43.2682 110.341 46.0309 110.348 48.7935C110.353 51.2029 110.357 50.2561 110.358 52.6655C110.359 53.94 110.36 50.1801 110.364 51.4545C110.368 52.657 110.369 53.8594 110.369 55.0619C110.369 55.5004 110.37 55.9389 110.372 56.3775C110.405 63.3971 108.998 69.5905 104.055 74.8133C99.6158 79.0071 94.8498 80.4341 88.9029 80.348C85.4591 80.2294 82.8574 78.7955 80.4129 76.4018C78.1114 73.6734 77.8483 70.0561 78.0792 66.6401C78.5794 61.5782 81.0669 57.1323 84.8715 53.7899C88.7712 50.7309 93.1078 49.6767 97.9992 50.0666C99.8096 50.3818 101.18 51.1175 102.754 52.0244C102.753 51.7244 102.752 51.4245 102.752 51.1154C102.733 48.8554 102.719 44.9173 102.71 37.623C102.706 34.0955 102.7 30.5681 102.691 27.0406C102.682 23.9665 102.677 20.8925 102.675 17.8185C102.674 16.1903 102.671 14.5622 102.665 12.9341C102.659 11.4022 102.658 9.87043 102.659 8.33856C102.659 7.77584 102.657 7.21311 102.654 6.6504C102.65 5.88291 102.651 5.11559 102.653 4.34809C102.651 4.12473 102.648 3.90136 102.646 3.67122C102.656 2.39701 102.807 1.57825 103.593 0.562356C104.597 -0.22632 105.485 -0.0528193 106.669 0.282671Z" fill="#7B3FE4"/>
<path d="M107.509 79.4375C107.693 79.4375 107.878 79.4375 108.068 79.4375C108.087 83.2278 108.102 87.0181 108.111 90.8085C108.116 92.5686 108.122 94.3286 108.131 96.0887C108.14 97.7879 108.145 99.4871 108.148 101.186C108.149 101.834 108.152 102.482 108.157 103.129C108.163 104.038 108.164 104.946 108.163 105.855C108.166 106.121 108.169 106.388 108.172 106.662C108.163 108.665 107.873 110.241 106.582 111.846C105.27 112.884 103.988 113.07 102.345 113.081C101.816 113.086 101.816 113.086 101.276 113.092C100.895 113.093 100.513 113.093 100.132 113.094C99.7371 113.095 99.3422 113.097 98.9473 113.099C98.1216 113.103 97.296 113.104 96.4704 113.103C95.4152 113.103 94.3602 113.111 93.305 113.121C92.4902 113.127 91.6754 113.128 90.8605 113.128C90.4715 113.128 90.0826 113.131 89.6937 113.135C85.9372 113.173 85.9372 113.173 84.5745 111.881C83.4093 110.555 83.4163 109.316 83.424 107.62C83.424 107.385 83.4239 107.15 83.4239 106.909C83.4241 106.132 83.4262 105.356 83.4284 104.58C83.429 104.042 83.4293 103.504 83.4296 102.965C83.4307 101.549 83.4334 100.132 83.4365 98.7155C83.4394 97.2701 83.4407 95.8247 83.4421 94.3793C83.4451 91.543 83.4499 88.7066 83.4557 85.8703C83.6775 85.9095 83.8992 85.9488 84.1277 85.9893C88.8149 86.7993 93.7686 87.0065 98.2791 85.3109C98.5725 85.2063 98.866 85.1018 99.1684 84.9941C101.946 83.9266 104.353 82.3998 106.513 80.3563C106.949 79.9969 106.949 79.9969 107.509 79.9969C107.509 79.8123 107.509 79.6277 107.509 79.4375Z" fill="white"/>
</svg>
