<svg width="1134" height="306" viewBox="0 0 1134 306" fill="none" xmlns="http://www.w3.org/2000/svg">
<g clip-path="url(#clip0_2429_742)">
<path d="M18.0043 33.5395C19.343 33.539 19.343 33.539 20.7088 33.5384C22.5961 33.5401 24.4834 33.5472 26.3707 33.5592C29.2363 33.5762 32.1014 33.5741 34.9671 33.5693C36.8064 33.5734 38.6457 33.5785 40.4851 33.5849C41.756 33.5839 41.756 33.5839 43.0527 33.5829C55.5852 33.6895 65.3995 36.3196 74.6746 45.0637C79.2796 49.9108 83.2153 54.9859 86.9851 60.5079C88.0133 62.0002 89.0418 63.4923 90.0705 64.9842C90.5818 65.7281 91.0932 66.4719 91.62 67.2383C93.8275 70.4415 96.0593 73.6275 98.2936 76.8122C99.1263 78.0005 99.9589 79.1889 100.791 80.3773C101.202 80.9627 101.612 81.5482 102.035 82.1513C103.317 83.9815 104.598 85.8126 105.878 87.6438C110.197 93.8202 114.523 99.9917 118.878 106.143C120.859 108.944 122.827 111.753 124.782 114.572C131.145 123.851 131.145 123.851 138.169 132.628C138.503 133.062 138.837 133.495 139.182 133.942C140.346 134.995 140.346 134.995 142.137 134.743C148.562 132.439 152.969 123.05 156.66 117.575C158.655 114.639 160.699 111.736 162.739 108.83C163.608 107.59 164.478 106.349 165.347 105.109C165.781 104.491 166.214 103.873 166.661 103.236C172.439 94.9989 178.204 86.7536 183.948 78.4925C184.924 77.0894 185.901 75.6862 186.877 74.2831C188.773 71.5586 190.665 68.8314 192.554 66.1026C196.776 60.0183 200.999 54.0246 205.747 48.3365C206.579 47.2125 206.579 47.2125 207.428 46.0657C213.462 39.6104 221.096 35.5295 229.727 33.8035C237.4 33.8035 245.074 33.8035 252.98 33.8035C252.98 61.3799 252.98 88.9563 252.98 117.368C246.865 118.088 246.865 118.088 240.626 118.822C228.803 121.914 219.202 126.56 210.107 134.808C209.657 135.191 209.206 135.574 208.742 135.969C198.693 145.086 193.87 158.353 190.544 171.118C190.284 172.094 190.023 173.071 189.761 174.047C189.566 174.779 189.371 175.51 189.17 176.264C188.005 179.158 186.325 181.482 184.493 183.993C184.108 184.529 183.724 185.064 183.329 185.616C180.031 190.196 176.668 194.727 173.307 199.26C170.232 203.421 167.239 207.633 164.283 211.878C163.022 213.684 161.762 215.49 160.501 217.295C159.653 218.51 158.806 219.725 157.959 220.941C156.713 222.724 155.458 224.5 154.2 226.275C153.832 226.806 153.463 227.338 153.083 227.885C150.139 232.014 147.068 235.794 142.12 237.357C138.99 237.243 137.449 236.479 135.262 234.359C129.955 228.595 125.588 222.043 121.124 215.624C119.322 213.036 117.506 210.459 115.688 207.882C115.33 207.374 114.971 206.865 114.602 206.341C111.967 202.609 109.291 198.907 106.605 195.211C102.916 190.132 99.3541 184.978 95.83 179.784C93.4193 176.244 90.9478 172.762 88.393 169.324C84.9974 164.755 81.7778 160.08 78.5853 155.367C75.3075 150.545 71.9103 145.818 68.4459 141.128C67.883 140.36 67.883 140.36 67.3087 139.577C66.9769 139.128 66.6451 138.679 66.3032 138.217C65.5035 136.988 65.5035 136.988 64.7768 134.808C64.2972 134.808 63.8176 134.808 63.3235 134.808C63.3255 135.594 63.3275 136.379 63.3296 137.188C63.378 156.298 63.4138 175.408 63.4365 194.517C63.4477 203.758 63.463 213 63.488 222.241C63.5097 230.295 63.5237 238.349 63.5286 246.404C63.5315 250.669 63.5381 254.934 63.554 259.199C63.5688 263.213 63.5734 267.228 63.5701 271.242C63.5707 272.715 63.575 274.189 63.5834 275.662C63.5942 277.674 63.5916 279.686 63.5857 281.699C63.592 282.281 63.5984 282.863 63.6049 283.462C63.5668 288.234 62.5268 291.587 59.3723 295.307C56.4558 297.726 53.9915 297.672 50.2739 297.707C49.4008 297.716 48.5277 297.725 47.628 297.735C46.2167 297.743 46.2167 297.743 44.7769 297.751C44.2959 297.754 43.815 297.757 43.3195 297.76C40.775 297.775 38.2305 297.786 35.6859 297.792C33.0649 297.8 30.4444 297.825 27.8235 297.854C25.8012 297.873 23.779 297.879 21.7566 297.882C20.3228 297.887 18.8891 297.906 17.4555 297.926C9.37921 297.906 9.37921 297.906 5.91804 294.671C2.93749 291.369 2.19457 289.115 2.18928 284.721C2.18649 283.854 2.18369 282.986 2.18082 282.093C2.18145 281.135 2.18208 280.177 2.18273 279.191C2.18085 278.167 2.17866 277.143 2.17619 276.119C2.17031 273.299 2.16902 270.479 2.16848 267.659C2.16714 264.62 2.16166 261.581 2.15676 258.542C2.14688 251.894 2.14251 245.246 2.13931 238.598C2.13731 234.449 2.13423 230.3 2.13095 226.15C2.12209 214.666 2.11461 203.182 2.11215 191.698C2.11199 190.963 2.11183 190.228 2.11167 189.47C2.11151 188.733 2.11135 187.996 2.11119 187.237C2.11086 185.743 2.11054 184.25 2.11021 182.756C2.11005 182.015 2.10989 181.275 2.10973 180.511C2.10686 168.504 2.09417 156.497 2.07725 144.489C2.06003 132.167 2.05097 119.845 2.05012 107.524C2.04945 100.603 2.04526 93.6823 2.03208 86.7616C2.0209 80.8691 2.01716 74.9767 2.02317 69.0841C2.02602 66.0769 2.02531 63.0699 2.01514 60.0627C2.00591 57.31 2.00673 54.5576 2.01557 51.805C2.01767 50.3368 2.00902 48.8686 2 47.4004C2.00479 46.5274 2.00958 45.6543 2.01451 44.7549C2.01408 44.0028 2.01364 43.2507 2.0132 42.4758C2.33812 39.9245 3.15533 38.1861 4.46473 35.9834C8.42425 32.9249 13.2337 33.5022 18.0043 33.5395Z" fill="white"/>
<path d="M281.319 210.383C281.799 210.383 282.278 210.383 282.772 210.383C282.823 220.23 282.861 230.078 282.885 239.926C282.897 244.499 282.912 249.072 282.937 253.644C282.96 258.059 282.973 262.474 282.979 266.889C282.983 268.571 282.991 270.254 283.003 271.936C283.019 274.297 283.021 276.657 283.02 279.017C283.028 279.71 283.035 280.402 283.043 281.116C283.019 286.319 282.266 290.414 278.912 294.584C275.503 297.279 272.171 297.763 267.904 297.792C266.529 297.806 266.529 297.806 265.126 297.82C264.135 297.822 263.144 297.824 262.153 297.825C261.128 297.83 260.102 297.835 259.076 297.84C256.93 297.848 254.785 297.851 252.64 297.85C249.899 297.85 247.158 297.87 244.416 297.895C242.299 297.911 240.182 297.914 238.065 297.913C237.055 297.915 236.044 297.921 235.034 297.933C225.274 298.031 225.274 298.031 221.734 294.674C218.706 291.23 218.724 288.01 218.744 283.604C218.744 282.994 218.744 282.384 218.744 281.756C218.745 279.739 218.75 277.722 218.756 275.705C218.757 274.307 218.758 272.909 218.759 271.511C218.762 267.83 218.769 264.15 218.777 260.469C218.784 256.714 218.788 252.959 218.791 249.203C218.799 241.834 218.812 234.465 218.827 227.096C219.403 227.198 219.979 227.3 220.573 227.405C232.75 229.51 245.621 230.048 257.339 225.642C258.102 225.371 258.864 225.099 259.65 224.819C266.868 222.046 273.121 218.079 278.733 212.77C279.866 211.836 279.866 211.836 281.319 211.836C281.319 211.357 281.319 210.877 281.319 210.383Z" fill="white"/>
<path d="M18.0043 33.5395C19.343 33.539 19.343 33.539 20.7088 33.5384C22.5961 33.5401 24.4834 33.5472 26.3707 33.5592C29.2363 33.5762 32.1014 33.5741 34.9671 33.5693C36.8064 33.5734 38.6457 33.5785 40.4851 33.5849C41.756 33.5839 41.756 33.5839 43.0527 33.5829C55.5852 33.6895 65.3995 36.3196 74.6746 45.0637C79.2796 49.9108 83.2153 54.9859 86.9851 60.5079C88.0133 62.0002 89.0418 63.4923 90.0705 64.9842C90.5818 65.7281 91.0932 66.4719 91.62 67.2383C93.8275 70.4415 96.0593 73.6275 98.2936 76.8122C99.1263 78.0005 99.9589 79.1889 100.791 80.3773C101.202 80.9627 101.612 81.5482 102.035 82.1513C103.317 83.9815 104.598 85.8126 105.878 87.6438C110.197 93.8202 114.523 99.9917 118.878 106.143C120.859 108.944 122.827 111.753 124.782 114.572C131.145 123.851 131.145 123.851 138.169 132.628C138.503 133.062 138.837 133.495 139.182 133.942C140.346 134.995 140.346 134.995 142.137 134.743C148.562 132.439 152.969 123.05 156.66 117.575C158.655 114.639 160.699 111.736 162.739 108.83C163.608 107.59 164.478 106.349 165.347 105.109C165.781 104.491 166.214 103.873 166.661 103.236C172.439 94.9989 178.204 86.7536 183.948 78.4925C184.924 77.0894 185.901 75.6862 186.877 74.2831C188.773 71.5586 190.665 68.8314 192.554 66.1026C196.776 60.0183 200.999 54.0246 205.747 48.3365C206.579 47.2125 206.579 47.2125 207.428 46.0657C213.462 39.6104 221.096 35.5295 229.727 33.8035C237.4 33.8035 245.074 33.8035 252.98 33.8035C252.98 61.3799 252.98 88.9563 252.98 117.368C246.865 118.088 246.865 118.088 240.626 118.822C228.803 121.914 219.202 126.56 210.107 134.808C209.657 135.191 209.206 135.574 208.742 135.969C198.693 145.086 193.87 158.353 190.544 171.118C190.284 172.094 190.023 173.071 189.761 174.047C189.566 174.779 189.371 175.51 189.17 176.264C188.005 179.158 186.325 181.482 184.493 183.993C184.108 184.529 183.724 185.064 183.329 185.616C180.031 190.196 176.668 194.727 173.307 199.26C170.232 203.421 167.239 207.633 164.283 211.878C163.022 213.684 161.762 215.49 160.501 217.295C159.653 218.51 158.806 219.725 157.959 220.941C156.713 222.724 155.458 224.5 154.2 226.275C153.832 226.806 153.463 227.338 153.083 227.885C150.139 232.014 147.068 235.794 142.12 237.357C138.99 237.243 137.449 236.479 135.262 234.359C129.955 228.595 125.588 222.043 121.124 215.624C119.322 213.036 117.506 210.459 115.688 207.882C115.33 207.374 114.971 206.865 114.602 206.341C111.967 202.609 109.291 198.907 106.605 195.211C102.916 190.132 99.3541 184.978 95.83 179.784C93.4193 176.244 90.9478 172.762 88.393 169.324C84.9974 164.755 81.7778 160.08 78.5853 155.367C75.3075 150.545 71.9103 145.818 68.4459 141.128C67.883 140.36 67.883 140.36 67.3087 139.577C66.9769 139.128 66.6451 138.679 66.3032 138.217C65.5035 136.988 65.5035 136.988 64.7768 134.808C64.2972 134.808 63.8176 134.808 63.3235 134.808C63.3255 135.594 63.3275 136.379 63.3296 137.188C63.378 156.298 63.4138 175.408 63.4365 194.517C63.4477 203.758 63.463 213 63.488 222.241C63.5097 230.295 63.5237 238.349 63.5286 246.404C63.5315 250.669 63.5381 254.934 63.554 259.199C63.5688 263.213 63.5734 267.228 63.5701 271.242C63.5707 272.715 63.575 274.189 63.5834 275.662C63.5942 277.674 63.5916 279.686 63.5857 281.699C63.592 282.281 63.5984 282.863 63.6049 283.462C63.5668 288.234 62.5268 291.587 59.3723 295.307C56.4558 297.726 53.9915 297.672 50.2739 297.707C49.4008 297.716 48.5277 297.725 47.628 297.735C46.2167 297.743 46.2167 297.743 44.7769 297.751C44.2959 297.754 43.815 297.757 43.3195 297.76C40.775 297.775 38.2305 297.786 35.6859 297.792C33.0649 297.8 30.4444 297.825 27.8235 297.854C25.8012 297.873 23.779 297.879 21.7566 297.882C20.3228 297.887 18.8891 297.906 17.4555 297.926C9.37921 297.906 9.37921 297.906 5.91804 294.671C2.93749 291.369 2.19457 289.115 2.18928 284.721C2.18649 283.854 2.18369 282.986 2.18082 282.093C2.18145 281.135 2.18208 280.177 2.18273 279.191C2.18085 278.167 2.17866 277.143 2.17619 276.119C2.17031 273.299 2.16902 270.479 2.16848 267.659C2.16714 264.62 2.16166 261.581 2.15676 258.542C2.14688 251.894 2.14251 245.246 2.13931 238.598C2.13731 234.449 2.13423 230.3 2.13095 226.15C2.12209 214.666 2.11461 203.182 2.11215 191.698C2.11199 190.963 2.11183 190.228 2.11167 189.47C2.11151 188.733 2.11135 187.996 2.11119 187.237C2.11086 185.743 2.11054 184.25 2.11021 182.756C2.11005 182.015 2.10989 181.275 2.10973 180.511C2.10686 168.504 2.09417 156.497 2.07725 144.489C2.06003 132.167 2.05097 119.845 2.05012 107.524C2.04945 100.603 2.04526 93.6823 2.03208 86.7616C2.0209 80.8691 2.01716 74.9767 2.02317 69.0841C2.02602 66.0769 2.02531 63.0699 2.01514 60.0627C2.00591 57.31 2.00673 54.5576 2.01557 51.805C2.01767 50.3368 2.00902 48.8686 2 47.4004C2.00479 46.5274 2.00958 45.6543 2.01451 44.7549C2.01408 44.0028 2.01364 43.2507 2.0132 42.4758C2.33812 39.9245 3.15533 38.1861 4.46473 35.9834C8.42425 32.9249 13.2337 33.5022 18.0043 33.5395Z" fill="white"/>
<path d="M279.139 4.73441C284.079 8.2826 288.276 13.0332 292.562 17.3364C293.715 18.4933 294.872 19.6462 296.029 20.7988C299.61 24.378 303.122 27.9856 306.413 31.8375C307.978 33.6549 309.642 35.3764 311.293 37.1158C325.114 52.0494 334.949 69.9792 334.546 90.8312C333.938 99.3807 332.128 107.366 328.551 115.185C328.246 115.863 327.942 116.54 327.628 117.238C324.258 124.046 318.792 130.422 312.564 134.805C311.845 134.805 311.126 134.805 310.385 134.805C310.88 130.716 312.366 127.828 314.33 124.26C317.273 117.722 318.034 111.499 317.969 104.376C317.965 103.545 317.96 102.714 317.955 101.858C317.845 95.8794 317.239 90.8845 314.744 85.3927C314.43 84.5918 314.43 84.5918 314.109 83.7748C309.99 74.2509 300.946 69.0048 292.048 64.5859C291.398 64.2628 290.748 63.9396 290.079 63.6066C289.586 63.3624 289.093 63.1182 288.585 62.8665C288.586 63.4751 288.588 64.0836 288.589 64.7106C288.621 79.5529 288.645 94.3952 288.66 109.238C288.668 116.415 288.678 123.593 288.695 130.771C288.709 137.031 288.718 134.571 288.722 140.831C288.724 144.142 288.728 134.373 288.739 137.684C288.749 140.808 288.752 143.932 288.749 147.057C288.75 148.196 288.753 149.335 288.758 150.475C288.844 168.712 285.189 184.803 272.346 198.373C260.812 209.269 248.43 212.976 232.979 212.753C224.032 212.444 217.272 208.719 210.921 202.5C204.942 195.411 204.258 186.013 204.858 177.138C206.158 163.987 212.62 152.436 222.505 143.752C232.637 135.804 243.904 133.065 256.612 134.078C261.316 134.897 264.876 136.809 268.965 139.165C268.963 138.386 268.961 137.606 268.959 136.803C268.911 130.932 268.875 120.7 268.852 101.748C268.841 92.5837 268.826 83.419 268.801 74.2543C268.779 66.2676 268.765 58.281 268.76 50.2942C268.757 46.0642 268.751 41.8342 268.735 37.6042C268.72 33.6243 268.716 29.6444 268.719 25.6645C268.718 24.2025 268.714 22.7404 268.706 21.2784C268.695 19.2844 268.697 17.2908 268.703 15.2968C268.697 14.7165 268.691 14.1361 268.684 13.5382C268.711 10.2277 269.105 8.10045 271.145 5.46106C273.753 3.412 276.062 3.86277 279.139 4.73441Z" fill="#7B3FE4"/>
<path d="M281.319 210.383C281.799 210.383 282.278 210.383 282.772 210.383C282.823 220.23 282.861 230.078 282.885 239.926C282.897 244.499 282.912 249.072 282.937 253.644C282.96 258.059 282.973 262.474 282.979 266.889C282.983 268.571 282.991 270.254 283.003 271.936C283.019 274.297 283.021 276.657 283.02 279.017C283.028 279.71 283.035 280.402 283.043 281.116C283.019 286.319 282.266 290.414 278.912 294.584C275.503 297.279 272.171 297.763 267.904 297.792C266.529 297.806 266.529 297.806 265.126 297.82C264.135 297.822 263.144 297.824 262.153 297.825C261.128 297.83 260.102 297.835 259.076 297.84C256.93 297.848 254.785 297.851 252.64 297.85C249.899 297.85 247.158 297.87 244.416 297.895C242.299 297.911 240.182 297.914 238.065 297.913C237.055 297.915 236.044 297.921 235.034 297.933C225.274 298.031 225.274 298.031 221.734 294.674C218.706 291.23 218.724 288.01 218.744 283.604C218.744 282.994 218.744 282.384 218.744 281.756C218.745 279.739 218.75 277.722 218.756 275.705C218.757 274.307 218.758 272.909 218.759 271.511C218.762 267.83 218.769 264.15 218.777 260.469C218.784 256.714 218.788 252.959 218.791 249.203C218.799 241.834 218.812 234.465 218.827 227.096C219.403 227.198 219.979 227.3 220.573 227.405C232.75 229.51 245.621 230.048 257.339 225.642C258.102 225.371 258.864 225.099 259.65 224.819C266.868 222.046 273.121 218.079 278.733 212.77C279.866 211.836 279.866 211.836 281.319 211.836C281.319 211.357 281.319 210.877 281.319 210.383Z" fill="white"/>
<path d="M374.814 303.384C361.59 303.384 349.877 301.117 339.675 296.583C329.663 292.049 321.256 286.004 314.455 278.447C307.843 270.701 302.742 262.106 299.152 252.66C295.752 243.025 294.052 233.201 294.052 223.189V217.521C294.052 207.131 295.752 197.212 299.152 187.766C302.742 178.132 307.843 169.536 314.455 161.979C321.067 154.422 329.285 148.472 339.109 144.126C349.121 139.592 360.456 137.325 373.114 137.325C389.739 137.325 403.718 141.104 415.054 148.661C426.578 156.028 435.362 165.758 441.408 177.848C447.453 189.75 450.476 202.785 450.476 216.954V232.257H313.038V206.469H422.988L408.252 218.371C408.252 209.114 406.93 201.18 404.285 194.568C401.64 187.955 397.673 182.949 392.383 179.549C387.283 175.959 380.859 174.164 373.114 174.164C365.179 174.164 358.473 175.959 352.994 179.549C347.515 183.138 343.359 188.428 340.525 195.418C337.692 202.219 336.275 210.626 336.275 220.638C336.275 229.895 337.597 238.019 340.242 245.009C342.887 251.81 347.043 257.099 352.711 260.878C358.378 264.656 365.746 266.545 374.814 266.545C383.126 266.545 389.927 264.939 395.217 261.728C400.507 258.516 404.096 254.549 405.985 249.826H447.642C445.375 260.216 440.935 269.473 434.323 277.597C427.711 285.72 419.399 292.049 409.386 296.583C399.373 301.117 387.849 303.384 374.814 303.384ZM463.518 298V142.71H499.506V209.586H496.956C496.956 193.717 498.94 180.493 502.907 169.914C506.874 159.334 512.825 151.4 520.76 146.11C528.694 140.632 538.423 137.892 549.947 137.892H551.931C563.644 137.892 573.373 140.632 581.119 146.11C589.053 151.4 595.004 159.334 598.972 169.914C603.128 180.493 605.206 193.717 605.206 209.586H594.154C594.154 193.717 596.138 180.493 600.105 169.914C604.261 159.334 610.307 151.4 618.241 146.11C626.176 140.632 635.905 137.892 647.429 137.892H649.413C661.126 137.892 670.949 140.632 678.884 146.11C687.007 151.4 693.147 159.334 697.303 169.914C701.459 180.493 703.538 193.717 703.538 209.586V298H658.197V207.036C658.197 198.535 655.93 191.639 651.396 186.35C647.051 181.06 640.817 178.415 632.693 178.415C624.57 178.415 618.147 181.154 613.424 186.633C608.701 191.923 606.339 199.007 606.339 207.886V298H560.716V207.036C560.716 198.535 558.449 191.639 553.915 186.35C549.57 181.06 543.43 178.415 535.495 178.415C527.183 178.415 520.665 181.154 515.942 186.633C511.219 191.923 508.858 199.007 508.858 207.886V298H463.518ZM800.849 303.384C787.247 303.384 775.156 301.306 764.576 297.15C753.997 292.805 745.023 286.948 737.656 279.581C730.477 272.213 724.998 263.806 721.22 254.36C717.441 244.725 715.552 234.618 715.552 224.039V217.521C715.552 206.753 717.441 196.551 721.22 186.916C725.187 177.093 730.855 168.497 738.222 161.129C745.779 153.761 754.847 147.999 765.427 143.843C776.006 139.498 787.813 137.325 800.849 137.325C814.262 137.325 826.164 139.498 836.554 143.843C847.134 147.999 856.107 153.761 863.475 161.129C870.843 168.497 876.51 177.093 880.478 186.916C884.445 196.551 886.428 206.753 886.428 217.521V224.039C886.428 234.618 884.539 244.725 880.761 254.36C876.983 263.806 871.409 272.213 864.042 279.581C856.863 286.948 847.984 292.805 837.404 297.15C826.825 301.306 814.64 303.384 800.849 303.384ZM800.849 265.128C809.728 265.128 817.096 263.239 822.952 259.461C828.809 255.682 833.248 250.393 836.271 243.592C839.482 236.791 841.088 229.234 841.088 220.922C841.088 212.042 839.482 204.297 836.271 197.685C833.059 190.884 828.431 185.499 822.385 181.532C816.529 177.565 809.35 175.581 800.849 175.581C792.536 175.581 785.357 177.565 779.312 181.532C773.267 185.499 768.638 190.884 765.427 197.685C762.404 204.297 760.893 212.042 760.893 220.922C760.893 229.234 762.404 236.791 765.427 243.592C768.449 250.393 772.983 255.682 779.029 259.461C785.074 263.239 792.347 265.128 800.849 265.128ZM901.069 298V142.71H937.058V209.303H936.208C936.208 187.389 940.836 170.481 950.093 158.579C959.539 146.677 973.141 140.726 990.899 140.726H996.85V179.832H985.515C973.046 179.832 963.412 183.232 956.611 190.033C949.81 196.646 946.409 206.28 946.409 218.938V298H901.069ZM1096.03 298V252.093H1088.38V202.219C1088.38 194.284 1086.49 188.333 1082.71 184.366C1078.93 180.399 1072.89 178.415 1064.57 178.415C1060.42 178.415 1054.94 178.51 1048.14 178.698C1041.34 178.887 1034.35 179.171 1027.17 179.549C1019.99 179.926 1013.47 180.304 1007.62 180.682V142.426C1011.96 142.048 1017.06 141.671 1022.92 141.293C1028.78 140.915 1034.82 140.631 1041.05 140.443C1047.29 140.254 1053.15 140.159 1058.62 140.159C1074.49 140.159 1087.81 142.426 1098.58 146.96C1109.54 151.494 1117.85 158.39 1123.52 167.647C1129.18 176.715 1132.02 188.428 1132.02 202.785V298H1096.03ZM1046.44 301.967C1035.29 301.967 1025.47 299.984 1016.97 296.016C1008.66 292.049 1002.14 286.382 997.415 279.014C992.692 271.457 990.33 262.483 990.33 252.093C990.33 240.758 993.258 231.501 999.115 224.322C1004.97 216.954 1013.19 211.57 1023.77 208.17C1034.35 204.58 1046.53 202.785 1060.32 202.785H1093.48V228.006H1060.04C1052.11 228.006 1045.97 229.99 1041.62 233.957C1037.47 237.735 1035.39 242.93 1035.39 249.543C1035.39 255.777 1037.47 260.878 1041.62 264.845C1045.97 268.623 1052.11 270.512 1060.04 270.512C1065.14 270.512 1069.68 269.662 1073.64 267.962C1077.8 266.073 1081.2 262.956 1083.84 258.611C1086.49 254.266 1088 248.22 1088.38 240.475L1099.15 251.81C1098.2 262.578 1095.56 271.646 1091.21 279.014C1087.06 286.382 1081.2 292.049 1073.64 296.016C1066.28 299.984 1057.21 301.967 1046.44 301.967Z" fill="white"/>
</g>
<rect x="0.5" y="0.5" width="1133" height="305" rx="1.5" stroke="white" stroke-opacity="0.1"/>
<defs>
<clipPath id="clip0_2429_742">
<rect width="1134" height="306" rx="2" fill="white"/>
</clipPath>
</defs>
</svg>
